<?xml version="1.0" standalone="no"?>
<!DOCTYPE svg PUBLIC "-//W3C//DTD SVG 20010904//EN"
 "http://www.w3.org/TR/2001/REC-SVG-20010904/DTD/svg10.dtd">
<svg version="1.0" xmlns="http://www.w3.org/2000/svg"
 width="6719.000000pt" height="6719.000000pt" viewBox="0 0 6719.000000 6719.000000"
 preserveAspectRatio="xMidYMid meet">
<metadata>
Created by potrace 1.11, written by Peter Selinger 2001-2013
</metadata>
<g transform="translate(0.000000,6719.000000) scale(0.100000,-0.100000)"
fill="#000000" stroke="none">
<path d="M32182 64401 c-11 -39 -57 -229 -102 -423 -233 -1011 -437 -1680
-750 -2465 -452 -1129 -997 -2105 -1598 -2861 -201 -253 -305 -367 -666 -727
-285 -284 -365 -360 -616 -586 -718 -646 -1453 -1205 -1945 -1481 -197 -111
-674 -352 -885 -448 -312 -142 -785 -318 -1720 -640 -769 -265 -1280 -452
-1280 -470 0 -4 8 -10 18 -13 9 -3 145 -44 302 -92 157 -48 308 -93 335 -100
76 -21 560 -170 735 -227 587 -190 1179 -417 1705 -653 346 -154 1005 -495
1200 -619 30 -20 57 -36 59 -36 15 0 398 -245 616 -394 215 -147 745 -546 790
-596 3 -3 32 -27 65 -55 120 -101 315 -274 469 -419 157 -147 520 -515 651
-661 50 -55 92 -102 95 -105 28 -25 273 -320 433 -520 269 -336 660 -922 892
-1335 512 -910 895 -1827 1214 -2910 41 -139 126 -450 271 -985 46 -170 84
-290 92 -290 4 0 8 3 8 8 0 4 9 41 21 82 19 73 82 346 140 605 102 456 283
1130 364 1355 9 25 18 53 20 64 3 10 11 37 19 60 8 22 36 102 62 176 130 378
315 841 455 1139 27 57 49 105 49 108 0 12 278 558 359 707 106 193 271 474
355 606 239 374 464 694 685 975 54 69 231 285 241 295 3 3 30 34 60 70 62 74
80 95 251 280 212 230 565 577 744 730 28 24 61 53 75 66 95 86 406 337 583
468 625 466 1565 1017 2297 1349 307 138 687 294 974 399 61 22 161 59 221 81
61 22 463 158 894 302 l784 262 -39 15 c-36 15 -266 85 -303 93 -38 8 -547
154 -911 261 -393 115 -1253 427 -1555 564 -22 10 -69 30 -105 45 -272 112
-969 454 -1325 649 -33 19 -85 47 -115 64 -53 29 -149 84 -290 167 -121 71
-374 242 -500 339 -149 114 -376 299 -470 382 -19 17 -116 103 -215 190 -99
87 -185 163 -191 169 -6 5 -56 51 -110 100 -286 260 -358 329 -760 730 -572
572 -668 681 -911 1034 -51 75 -96 141 -100 146 -44 56 -319 499 -453 730 -91
157 -381 722 -493 961 -70 151 -216 492 -291 684 -32 80 -61 154 -66 165 -20
42 -164 438 -221 605 -118 342 -242 736 -344 1090 -198 685 -236 810 -245 810
-4 0 -16 -31 -28 -69z"/>
<path d="M20370 54380 c0 -11 2 -20 4 -20 2 0 6 9 9 20 3 11 1 20 -4 20 -5 0
-9 -9 -9 -20z"/>
<path d="M20373 54310 c0 -25 2 -35 4 -22 2 12 2 32 0 45 -2 12 -4 2 -4 -23z"/>
<path d="M20372 54240 c0 -14 2 -19 5 -12 2 6 2 18 0 25 -3 6 -5 1 -5 -13z"/>
<path d="M17637 48764 c-1 -1 -85 -4 -187 -8 -102 -3 -207 -8 -235 -10 -155
-12 -216 -17 -232 -20 -10 -2 -49 -7 -88 -11 -63 -6 -272 -36 -350 -50 -16 -3
-43 -7 -60 -10 -16 -3 -41 -7 -55 -10 -14 -3 -38 -8 -55 -11 -127 -22 -498
-133 -598 -178 -17 -8 -84 -36 -147 -62 -237 -99 -545 -265 -799 -431 -129
-85 -373 -262 -426 -310 -12 -10 -50 -43 -85 -73 -77 -64 -187 -169 -279 -264
-36 -37 -78 -80 -92 -95 -14 -14 -63 -71 -108 -126 -46 -55 -92 -111 -103
-123 -84 -102 -272 -371 -381 -548 -372 -602 -728 -1443 -941 -2224 -15 -52
-33 -117 -41 -145 -13 -45 -111 -439 -121 -490 -2 -11 -7 -36 -10 -55 -3 -19
-8 -38 -10 -41 -5 -8 -29 -128 -64 -314 -12 -60 -27 -144 -35 -185 -8 -41 -26
-147 -39 -235 -52 -331 -55 -348 -61 -415 -3 -25 -9 -79 -14 -120 -6 -41 -13
-100 -16 -130 -4 -30 -8 -66 -10 -80 -2 -14 -7 -59 -10 -100 -4 -41 -8 -86
-10 -100 -2 -21 -8 -77 -20 -200 -2 -14 -6 -56 -10 -95 -3 -38 -8 -77 -10 -85
-2 -8 -7 -42 -10 -75 -4 -33 -10 -85 -15 -115 -5 -30 -12 -75 -15 -100 -3 -25
-10 -71 -16 -102 -5 -32 -11 -68 -13 -80 -14 -83 -27 -110 -63 -124 -32 -14
-164 -50 -219 -60 -11 -2 -85 -17 -165 -34 -195 -41 -504 -100 -609 -116 -19
-2 -64 -11 -100 -19 -36 -8 -81 -16 -100 -20 -64 -10 -342 -74 -485 -111 -269
-71 -814 -238 -920 -284 -11 -4 -33 -13 -50 -18 -105 -37 -490 -194 -650 -265
-526 -234 -1098 -543 -1480 -801 -49 -34 -94 -64 -100 -69 -5 -4 -62 -46 -125
-93 -158 -119 -201 -154 -376 -309 -183 -163 -490 -471 -739 -740 -49 -54 -95
-103 -100 -109 -6 -6 -60 -65 -120 -131 -60 -66 -114 -125 -119 -131 -24 -25
-135 -151 -162 -184 -16 -19 -39 -46 -52 -60 -48 -51 -201 -260 -240 -326 -22
-38 -52 -96 -67 -129 -61 -134 -46 -97 -126 -325 -37 -108 -91 -292 -118 -404
-33 -138 -80 -382 -96 -506 -3 -25 -8 -56 -10 -70 -7 -40 -15 -106 -30 -260
-3 -27 -7 -71 -10 -97 -12 -117 -18 -287 -18 -523 -1 -273 5 -414 27 -635 9
-89 64 -423 81 -492 9 -39 15 -67 21 -103 8 -45 87 -362 115 -460 11 -41 29
-105 39 -142 48 -175 285 -852 344 -983 8 -16 36 -86 64 -155 213 -530 633
-1398 962 -1985 9 -16 33 -59 52 -95 73 -134 180 -322 198 -350 6 -8 13 -22
17 -30 18 -39 337 -579 476 -805 44 -71 87 -142 96 -157 25 -43 91 -150 116
-188 13 -19 87 -136 166 -260 78 -124 174 -274 214 -335 39 -60 89 -138 111
-172 21 -35 42 -63 47 -63 4 0 7 -5 7 -10 0 -9 366 -560 548 -825 26 -38 86
-126 133 -195 91 -133 332 -478 346 -495 4 -5 33 -46 63 -90 29 -44 70 -102
89 -130 33 -48 136 -196 246 -355 81 -117 277 -405 449 -660 39 -58 74 -109
79 -115 16 -21 90 -130 337 -500 140 -209 257 -382 261 -385 3 -3 16 -24 29
-47 13 -24 27 -43 32 -43 4 0 8 -5 8 -11 0 -6 13 -28 29 -48 15 -20 30 -41 32
-46 2 -6 112 -172 243 -370 132 -198 278 -418 324 -490 144 -220 763 -1150
892 -1340 67 -99 150 -220 183 -270 34 -49 64 -92 67 -95 3 -3 10 -12 15 -22
6 -9 30 -45 54 -80 24 -34 78 -112 119 -173 73 -105 152 -219 169 -240 4 -5
33 -46 63 -90 30 -44 133 -190 230 -325 96 -135 187 -261 200 -280 14 -19 27
-37 30 -40 3 -3 17 -21 30 -40 34 -50 361 -491 426 -575 39 -51 237 -310 264
-345 101 -134 645 -815 800 -1000 21 -25 86 -103 146 -175 109 -131 366 -426
427 -489 17 -18 68 -73 112 -122 407 -447 1130 -1170 1535 -1536 187 -168 401
-338 427 -338 3 0 37 -18 76 -40 38 -22 71 -39 72 -38 4 4 -74 197 -112 278
-17 36 -72 157 -123 270 -51 113 -106 234 -122 270 -17 36 -70 153 -118 260
-48 107 -100 222 -115 255 -16 33 -42 94 -60 135 -18 41 -42 96 -54 123 -11
26 -30 68 -41 93 -77 170 -298 719 -410 1014 -34 91 -73 192 -85 225 -230 596
-598 1736 -730 2255 -13 52 -33 131 -45 175 -21 83 -65 271 -74 315 -2 14 -16
81 -31 150 -14 69 -27 134 -29 145 -25 129 -39 204 -42 225 -3 14 -9 50 -15
80 -6 30 -12 66 -13 80 -2 14 -6 34 -9 45 -3 11 -9 44 -12 74 -4 30 -9 63 -11
75 -7 31 -42 274 -49 331 -3 28 -8 59 -10 70 -5 24 -13 92 -20 155 -2 25 -7
68 -10 95 -4 28 -8 68 -10 90 -3 22 -7 61 -10 88 -9 81 -14 139 -21 219 -3 43
-7 90 -9 105 -2 16 -6 87 -10 158 -4 72 -8 141 -11 155 -23 145 -22 1225 1
1470 2 19 6 82 9 140 4 58 9 116 11 130 2 14 7 57 10 95 3 39 8 88 10 110 15
140 25 221 31 255 2 14 6 50 10 80 3 30 7 62 9 70 2 8 7 38 10 65 4 28 8 57
10 65 3 8 7 33 10 55 7 46 52 300 59 330 2 11 12 56 21 100 8 44 27 127 41
185 14 58 27 113 29 123 2 10 7 27 10 37 3 10 8 27 10 37 18 84 103 369 160
538 211 630 434 1082 813 1654 198 299 302 443 685 949 30 39 36 47 174 217
98 121 91 113 229 275 288 340 563 622 899 925 55 49 107 96 116 105 63 60
376 330 549 474 91 76 176 148 190 160 14 12 48 40 75 61 28 22 52 42 55 45 8
10 442 354 485 385 22 17 42 32 45 35 3 3 34 28 70 55 36 27 67 52 70 55 6 6
238 179 344 255 224 163 522 360 771 511 220 134 217 132 235 141 8 4 49 27
90 51 67 40 220 127 380 216 91 50 220 119 440 235 152 80 798 402 905 451 39
18 106 49 150 70 184 87 819 370 830 370 3 0 28 11 57 24 53 24 106 46 253
106 44 18 89 36 100 41 40 18 282 112 360 140 44 16 89 34 100 39 11 5 102 39
203 75 463 166 852 284 1222 371 85 20 170 40 189 45 19 4 38 6 43 3 5 -3 52
-60 106 -127 53 -67 105 -131 114 -142 9 -11 72 -87 139 -170 67 -82 125 -152
128 -155 3 -3 38 -44 78 -91 39 -48 78 -93 85 -100 7 -8 23 -27 36 -43 21 -27
120 -142 152 -176 8 -8 38 -42 65 -75 28 -33 53 -62 56 -65 26 -22 273 -326
345 -425 86 -117 113 -167 107 -197 -10 -50 -136 -157 -518 -439 -49 -36 -301
-216 -338 -241 -11 -7 -58 -41 -105 -75 -48 -34 -116 -82 -152 -107 -213 -151
-348 -249 -448 -325 -63 -47 -124 -93 -136 -101 -18 -12 -90 -69 -226 -177
-77 -61 -266 -217 -270 -222 -3 -3 -30 -26 -60 -51 -86 -71 -91 -74 -109 -90
-10 -8 -47 -40 -82 -71 -35 -31 -84 -74 -109 -95 -94 -81 -381 -340 -505 -456
-33 -31 -73 -68 -90 -83 -233 -212 -935 -912 -1260 -1256 -207 -220 -394 -421
-445 -479 -18 -21 -145 -162 -174 -193 -12 -13 -48 -54 -81 -92 -33 -37 -67
-75 -75 -84 -9 -9 -45 -50 -80 -91 -36 -41 -67 -77 -70 -80 -3 -3 -32 -36 -65
-75 -33 -38 -72 -83 -86 -100 -122 -141 -366 -433 -419 -499 -8 -10 -27 -33
-41 -50 -26 -31 -323 -402 -337 -421 -4 -5 -39 -50 -78 -100 -111 -140 -456
-604 -595 -802 -230 -324 -485 -717 -682 -1048 -279 -469 -573 -1156 -743
-1732 -13 -46 -35 -121 -49 -168 -53 -182 -176 -691 -199 -830 -3 -16 -10 -55
-16 -85 -6 -30 -13 -66 -16 -80 -2 -14 -6 -34 -9 -46 -3 -12 -7 -39 -10 -60
-4 -21 -15 -91 -25 -154 -10 -63 -22 -135 -25 -160 -3 -25 -8 -56 -10 -70 -2
-14 -7 -45 -10 -70 -5 -40 -8 -63 -20 -150 -2 -14 -7 -54 -10 -90 -4 -36 -8
-72 -10 -80 -2 -8 -6 -51 -10 -95 -4 -44 -9 -93 -11 -110 -1 -16 -6 -66 -9
-110 -3 -44 -8 -98 -10 -120 -2 -22 -7 -85 -10 -140 -4 -55 -8 -127 -10 -160
-25 -394 -25 -1281 0 -1675 13 -208 16 -260 20 -310 2 -30 7 -91 10 -135 3
-44 8 -98 10 -120 2 -22 7 -71 10 -110 4 -38 8 -83 10 -100 2 -16 7 -61 10
-100 4 -38 8 -83 10 -100 2 -16 7 -52 10 -80 5 -48 9 -79 19 -155 3 -19 10
-73 16 -120 6 -47 12 -98 15 -115 2 -16 6 -47 9 -69 11 -79 18 -125 41 -271
13 -82 26 -166 29 -185 3 -19 8 -46 11 -60 3 -14 8 -41 11 -60 4 -29 29 -166
39 -220 17 -87 38 -200 41 -220 2 -14 7 -36 11 -50 10 -42 11 -47 32 -160 5
-30 15 -77 21 -105 6 -27 14 -61 16 -75 5 -28 54 -248 84 -380 79 -348 220
-922 271 -1105 11 -38 22 -77 24 -85 2 -8 15 -58 29 -110 15 -52 28 -102 30
-110 48 -197 250 -847 390 -1255 38 -114 180 -489 206 -550 10 -22 39 -89 65
-150 85 -196 200 -417 264 -505 38 -52 167 -179 241 -237 114 -88 362 -248
528 -339 23 -13 63 -36 90 -51 65 -37 611 -311 697 -350 39 -18 111 -51 160
-73 178 -82 614 -269 800 -344 105 -42 201 -81 215 -88 43 -19 62 -26 208 -83
78 -30 145 -55 148 -55 3 0 20 -7 37 -15 35 -16 370 -142 567 -212 506 -182
892 -312 1425 -481 264 -85 316 -101 548 -171 34 -10 116 -36 182 -56 66 -20
127 -38 135 -40 8 -2 46 -13 84 -25 38 -12 76 -23 85 -25 9 -2 86 -25 171 -50
344 -102 1222 -335 1320 -351 19 -3 38 -8 43 -11 4 -2 19 -7 34 -9 15 -3 66
-14 113 -25 47 -12 94 -22 105 -24 11 -2 43 -9 70 -15 28 -6 61 -13 75 -16 14
-2 54 -11 90 -19 36 -8 88 -17 115 -20 28 -4 66 -10 85 -15 37 -9 100 -18 255
-36 116 -14 287 -9 323 10 38 20 40 42 17 194 -15 98 -17 108 -35 198 -6 28
-13 63 -16 79 -3 15 -21 94 -40 174 -20 80 -37 153 -39 161 -4 18 -91 350
-105 400 -29 103 -76 286 -139 545 -40 160 -76 306 -81 325 -6 19 -15 58 -21
85 -6 28 -12 57 -14 65 -8 30 -106 456 -116 500 -5 25 -11 54 -14 65 -28 122
-55 247 -60 275 -3 19 -10 51 -15 70 -7 28 -103 500 -124 610 -30 161 -80 433
-92 500 -8 47 -17 96 -19 110 -3 14 -8 41 -11 60 -7 45 -61 376 -74 455 -11
66 -57 372 -64 426 -2 19 -14 102 -25 184 -11 83 -23 170 -26 195 -3 25 -7 56
-10 70 -2 14 -6 50 -10 80 -4 30 -8 66 -10 80 -2 14 -7 54 -10 90 -4 36 -9 72
-10 80 -2 9 -6 47 -9 85 -4 39 -8 81 -11 95 -2 14 -7 54 -10 90 -3 36 -8 81
-10 100 -5 41 -22 208 -30 300 -3 36 -8 81 -10 100 -5 42 -13 141 -20 230 -3
36 -7 88 -10 115 -3 28 -7 86 -10 130 -3 44 -7 105 -10 135 -2 30 -7 93 -10
140 -3 47 -7 114 -10 150 -6 74 -17 263 -30 520 -4 83 -13 296 -20 475 -5 117
-16 520 -20 705 -5 208 -5 1385 -1 1575 5 202 16 551 21 675 3 52 7 154 10
225 3 72 8 157 10 190 2 33 7 114 10 180 3 66 8 140 10 165 2 25 6 86 10 135
3 50 8 113 10 140 2 28 6 84 10 125 5 74 11 139 20 235 2 28 7 82 10 121 3 39
7 80 9 90 3 16 10 84 21 214 3 39 17 168 20 190 2 14 6 52 10 85 3 33 10 94
15 135 5 41 12 98 15 125 3 28 8 61 10 75 3 14 7 52 10 85 4 33 8 67 10 75 2
8 6 40 10 70 3 30 8 73 12 95 3 22 7 49 8 60 7 48 26 182 30 205 2 14 13 88
25 165 11 77 22 151 24 165 3 14 7 41 10 60 3 19 15 91 27 160 11 69 23 139
25 155 3 17 11 64 19 105 7 41 16 91 19 110 3 19 8 45 10 56 2 12 7 39 11 60
4 22 9 48 11 59 4 23 9 50 29 155 8 41 16 86 19 100 2 14 7 36 10 50 3 14 8
36 10 50 2 14 18 95 36 180 17 85 34 169 36 185 3 17 10 48 16 70 6 22 11 49
13 60 2 11 15 74 30 140 14 66 28 129 31 140 2 11 6 31 9 45 3 14 7 34 10 45
2 11 31 139 65 285 34 146 63 272 65 280 2 8 22 91 45 183 23 93 43 176 45
185 3 10 9 37 16 62 6 25 12 52 14 60 2 8 31 119 64 245 33 127 69 266 80 310
12 44 26 96 31 115 19 66 172 622 175 639 10 39 226 784 257 881 11 36 40 133
65 215 24 83 56 186 69 230 14 44 38 123 54 175 15 52 54 176 85 275 31 99 63
200 70 225 7 25 28 90 46 145 18 55 34 105 35 110 1 6 30 98 64 205 81 257
165 523 234 745 31 99 68 214 81 255 14 41 50 155 80 253 31 97 59 176 63 173
4 -2 72 -7 152 -11 80 -4 172 -9 205 -10 33 -2 121 -6 195 -10 74 -3 164 -8
200 -10 289 -16 825 -21 1060 -11 285 14 357 17 380 21 14 2 66 6 115 10 50 4
101 8 115 10 14 2 54 6 90 10 128 13 145 15 170 19 22 4 57 9 170 21 35 4 251
34 275 39 37 7 133 21 200 30 22 3 60 8 84 11 24 4 80 8 125 9 266 10 376 -94
609 -574 46 -96 94 -195 105 -220 11 -25 34 -76 52 -115 18 -38 65 -149 107
-245 41 -96 80 -188 88 -205 23 -51 114 -271 156 -378 22 -56 47 -118 56 -137
21 -49 25 -60 78 -195 26 -66 52 -131 58 -145 6 -14 11 -27 12 -30 1 -5 28
-74 120 -309 189 -482 500 -1326 715 -1941 39 -113 87 -248 105 -300 29 -82
229 -681 315 -945 59 -181 205 -668 247 -825 20 -76 100 -398 107 -435 4 -16
9 -41 12 -55 3 -14 7 -36 10 -50 2 -14 9 -45 14 -70 5 -25 12 -58 15 -75 2
-16 9 -50 15 -75 13 -57 76 -406 85 -470 2 -14 8 -52 14 -85 18 -101 25 -144
41 -260 6 -44 14 -93 16 -110 3 -16 7 -41 9 -55 36 -263 46 -339 55 -415 6
-49 13 -106 15 -125 2 -19 7 -57 10 -85 3 -27 8 -66 10 -85 3 -19 7 -59 10
-87 8 -82 16 -155 20 -188 2 -16 7 -66 10 -110 3 -44 8 -93 10 -110 2 -16 7
-66 10 -110 4 -44 8 -98 10 -120 2 -22 7 -74 10 -115 2 -41 7 -102 10 -135 2
-33 7 -105 10 -160 3 -55 8 -127 10 -160 3 -33 7 -114 10 -180 3 -66 7 -163
10 -215 17 -392 22 -969 11 -1397 l-7 -272 43 14 c796 259 1041 353 1631 627
435 202 613 303 1052 593 366 242 685 473 1168 845 143 110 585 468 623 504 6
6 33 29 60 51 63 52 366 316 424 370 25 23 79 73 120 111 599 551 1118 1222
1648 2129 584 999 1063 2117 1443 3365 34 113 34 114 -8 150 -21 18 -76 68
-123 110 -47 43 -101 90 -120 106 -19 16 -42 36 -50 44 -97 91 -510 432 -720
595 -285 220 -805 597 -982 710 -75 48 -296 196 -305 204 -7 6 -15 11 -19 11
-4 0 -21 10 -38 23 -40 30 -353 225 -571 356 -93 56 -177 106 -185 111 -43 27
-617 353 -685 390 -44 24 -84 46 -90 50 -5 4 -55 31 -110 60 -55 29 -136 72
-180 96 -361 194 -1181 603 -1600 799 -55 26 -138 65 -185 87 -211 100 -777
358 -784 358 -2 0 -42 17 -88 38 -81 38 -203 92 -263 117 -16 7 -55 24 -85 38
-53 25 -435 189 -785 337 -93 40 -194 83 -223 96 -29 13 -55 24 -57 24 -5 0
-184 88 -225 111 -148 81 -168 160 -73 279 6 8 40 51 75 95 35 44 70 89 80
100 9 11 44 54 78 95 87 106 83 101 205 245 60 72 117 139 127 150 10 11 27
31 37 44 37 43 255 286 280 312 9 9 42 45 73 81 l58 65 192 -44 c161 -36 376
-85 438 -98 8 -2 78 -17 155 -35 77 -17 149 -33 160 -36 11 -2 112 -25 225
-50 113 -25 214 -48 225 -50 11 -2 79 -17 150 -33 316 -73 361 -83 380 -87 38
-7 161 -35 355 -80 107 -25 206 -48 220 -50 14 -3 122 -28 240 -55 118 -28
253 -59 300 -70 215 -50 318 -74 485 -115 99 -23 266 -63 370 -88 105 -25 208
-51 230 -57 63 -17 360 -90 425 -104 8 -2 42 -10 75 -19 33 -9 71 -19 83 -22
13 -2 49 -12 80 -20 32 -8 64 -17 72 -19 8 -1 87 -22 175 -45 88 -23 168 -43
177 -45 9 -2 50 -13 90 -24 95 -26 207 -56 343 -91 61 -16 191 -52 290 -80 99
-28 189 -53 199 -55 10 -2 33 -9 51 -15 18 -6 41 -12 51 -15 174 -38 1402
-422 1739 -545 44 -16 138 -49 208 -74 70 -26 158 -58 195 -72 37 -14 114 -44
172 -66 58 -22 114 -44 125 -48 11 -5 72 -30 135 -55 114 -46 198 -81 275
-115 303 -133 436 -194 690 -320 296 -147 383 -192 560 -292 50 -28 110 -62
135 -76 25 -14 95 -55 155 -91 76 -46 136 -74 195 -91 190 -53 374 -138 527
-242 152 -102 350 -286 463 -429 25 -32 101 -106 170 -166 167 -147 734 -715
935 -938 15 -16 55 -59 89 -95 248 -264 595 -695 773 -960 314 -469 540 -974
684 -1530 39 -152 82 -341 93 -410 3 -19 12 -73 20 -120 8 -47 17 -105 21
-130 3 -25 8 -56 10 -70 2 -14 7 -50 10 -81 3 -31 8 -66 10 -77 2 -12 6 -63
10 -114 3 -51 8 -104 10 -118 19 -127 25 -729 11 -1020 -8 -164 -10 -185 -20
-310 -3 -36 -8 -96 -11 -135 -4 -38 -8 -81 -10 -95 -2 -14 -7 -54 -10 -90 -3
-36 -8 -76 -10 -90 -2 -14 -6 -45 -9 -70 -4 -25 -8 -54 -10 -65 -7 -40 362
-562 534 -755 136 -151 633 -655 866 -876 29 -27 90 -85 136 -129 46 -44 120
-113 163 -154 44 -41 107 -99 140 -130 85 -78 314 -287 444 -403 29 -27 56
-48 59 -48 11 0 219 431 357 740 105 236 107 240 139 315 123 294 200 488 328
835 11 30 24 64 29 75 4 11 12 36 18 55 5 19 28 89 51 155 64 185 111 336 196
630 39 134 140 523 149 575 3 18 8 36 10 40 2 4 7 22 10 41 3 19 15 75 26 124
18 80 29 134 44 215 3 14 7 36 10 50 3 14 14 79 26 145 30 182 36 217 44 275
3 25 8 56 10 70 14 78 50 399 60 535 4 44 8 100 11 125 23 260 23 1003 -1
1195 -2 17 -6 62 -9 100 -10 120 -23 236 -41 355 -2 14 -6 45 -10 70 -20 141
-76 423 -109 555 -2 6 -6 28 -10 50 -4 22 -12 54 -17 70 -5 17 -23 80 -40 140
-94 338 -214 668 -371 1025 -43 98 -264 540 -406 814 l-41 79 128 181 c144
203 161 228 288 412 167 240 654 974 723 1089 13 22 26 42 29 45 4 3 11 14 18
25 18 30 131 212 178 285 51 79 233 375 252 410 8 14 22 37 31 52 24 37 188
322 225 388 249 456 554 1212 780 1935 55 175 147 499 161 566 3 13 16 71 30
129 14 58 28 121 31 140 3 19 8 42 10 50 6 23 15 70 21 120 3 25 7 58 10 75 7
57 15 140 19 200 5 74 5 374 1 435 -9 114 -18 217 -21 240 -2 14 -6 48 -9 75
-10 75 -34 218 -57 330 -12 55 -23 108 -25 118 -2 10 -6 27 -9 37 -3 10 -8 28
-10 39 -31 165 -194 625 -305 866 -110 239 -348 659 -382 673 -5 2 -8 8 -8 13
0 12 -67 104 -159 222 -289 367 -583 619 -1096 939 -431 269 -844 473 -1224
603 -287 98 -760 212 -1036 250 -23 3 -52 8 -65 10 -14 3 -45 7 -70 10 -25 3
-56 8 -70 10 -14 3 -45 7 -70 10 -25 3 -62 8 -82 10 -119 15 -210 25 -283 30
-27 2 -81 6 -120 9 -254 23 -487 30 -905 30 -369 0 -598 -6 -770 -19 -30 -2
-95 -7 -145 -10 -130 -9 -214 -15 -265 -20 -25 -3 -76 -7 -115 -10 -38 -3 -81
-8 -95 -10 -14 -2 -57 -7 -95 -10 -39 -3 -79 -7 -90 -9 -11 -2 -49 -7 -85 -11
-36 -3 -92 -10 -125 -15 -33 -5 -80 -12 -105 -15 -122 -17 -387 -57 -485 -75
-60 -11 -126 -22 -145 -25 -77 -12 -440 -86 -630 -129 -85 -19 -166 -37 -180
-40 -14 -2 -47 -10 -75 -16 -27 -6 -59 -13 -70 -16 -11 -2 -31 -6 -45 -9 -14
-2 -38 -7 -55 -10 -16 -3 -41 -7 -55 -10 -84 -17 -258 -38 -273 -32 -17 6 -18
26 -13 309 4 167 8 332 11 368 2 36 7 121 10 190 2 69 7 179 10 245 12 242 13
285 21 570 12 475 7 968 -11 1180 -2 22 -7 76 -10 120 -3 44 -8 94 -10 110 -2
17 -9 73 -15 125 -10 80 -49 333 -64 406 -20 101 -50 232 -67 294 -12 41 -23
84 -25 96 -14 75 -124 399 -181 533 -25 58 -52 124 -61 146 -25 62 -138 279
-200 385 -78 135 -197 307 -299 435 -106 133 -344 375 -469 478 -226 184 -522
366 -754 461 -36 15 -79 34 -97 42 -38 17 -354 122 -385 128 -13 2 -41 9 -63
14 -56 15 -281 60 -335 67 -25 3 -67 8 -95 11 -27 3 -59 7 -70 9 -135 28 -718
25 -909 -4 -33 -6 -79 -12 -101 -16 -22 -3 -65 -10 -95 -15 -30 -5 -68 -12
-85 -14 -25 -5 -87 -17 -250 -52 -11 -2 -29 -6 -40 -8 -46 -10 -214 -49 -265
-62 -30 -8 -63 -17 -72 -19 -9 -2 -79 -20 -155 -40 -76 -20 -145 -38 -153 -40
-78 -20 -376 -108 -560 -167 -283 -90 -675 -234 -822 -302 -31 -14 -59 -26
-63 -26 -8 0 -506 -249 -650 -325 -255 -134 -797 -444 -948 -541 -37 -24 -70
-44 -72 -44 -3 0 -29 -15 -58 -34 -28 -19 -122 -78 -207 -132 -130 -81 -405
-262 -615 -404 -27 -19 -146 -102 -264 -184 -117 -83 -223 -158 -235 -166 -67
-47 -385 -281 -526 -389 -252 -191 -289 -220 -580 -450 -75 -60 -295 -239
-445 -363 -56 -46 -374 -314 -400 -337 -16 -14 -79 -69 -140 -120 -60 -52
-133 -115 -160 -140 -46 -42 -150 -134 -201 -178 -12 -10 -58 -52 -104 -93
-46 -41 -91 -82 -100 -90 -9 -8 -64 -58 -120 -110 -57 -52 -115 -106 -129
-118 -14 -13 -75 -70 -136 -127 -60 -57 -126 -118 -146 -136 -40 -38 -246
-228 -263 -244 -7 -5 -36 -32 -66 -60 -198 -180 -255 -232 -340 -305 -52 -46
-108 -95 -125 -109 -169 -148 -373 -301 -430 -323 -22 -8 -56 -14 -75 -13 -63
4 -183 15 -260 25 -41 5 -97 12 -125 15 -27 3 -59 8 -70 10 -11 2 -42 7 -70
10 -43 5 -110 15 -205 30 -14 2 -45 7 -70 10 -25 3 -52 8 -60 10 -8 2 -40 7
-70 10 -30 3 -62 8 -70 10 -8 2 -37 6 -65 9 -27 3 -108 12 -180 20 -172 20
-222 24 -346 32 -57 3 -117 8 -134 9 -220 26 -1403 26 -1636 0 -19 -2 -78 -7
-132 -10 -53 -3 -107 -8 -120 -10 -12 -2 -51 -6 -87 -9 -36 -4 -76 -8 -90 -10
-14 -3 -52 -7 -85 -11 -32 -4 -62 -8 -65 -10 -3 -1 -32 -6 -65 -10 -33 -3 -82
-11 -110 -16 -133 -25 -366 -31 -440 -10 -27 8 -64 34 -116 84 -41 39 -109
101 -150 137 -41 36 -76 68 -79 71 -3 3 -48 43 -100 89 -52 46 -97 86 -100 89
-3 3 -36 33 -75 66 -38 33 -75 64 -81 70 -6 5 -37 33 -69 60 -32 28 -65 57
-74 65 -9 9 -50 45 -91 80 -41 36 -88 77 -105 91 -77 68 -136 118 -189 164
-33 28 -64 55 -70 60 -24 22 -153 133 -180 156 -16 13 -34 29 -40 34 -6 6 -40
35 -76 65 -36 30 -67 57 -70 60 -3 4 -66 57 -140 120 -74 63 -140 119 -146
125 -6 5 -35 30 -64 54 -29 25 -58 50 -64 55 -6 6 -67 58 -136 115 -69 58
-143 121 -165 140 -23 20 -63 54 -90 76 -27 22 -70 57 -95 79 -25 21 -56 47
-70 59 -14 11 -52 43 -85 72 -136 116 -629 496 -760 585 -27 19 -55 39 -61 45
-11 9 -262 189 -414 295 -191 134 -801 540 -892 595 -10 5 -56 35 -104 65 -47
30 -93 60 -103 65 -9 6 -39 24 -66 41 -28 17 -115 71 -195 119 -80 49 -161 98
-180 110 -19 13 -55 34 -80 47 -25 14 -83 48 -130 75 -322 191 -1014 554
-1320 692 -41 19 -129 59 -195 89 -693 314 -1393 571 -2117 776 -144 41 -555
144 -608 152 -19 3 -38 8 -41 10 -5 3 -187 42 -274 59 -138 26 -194 37 -220
41 -16 3 -66 11 -110 19 -86 16 -93 17 -260 40 -165 23 -166 23 -225 30 -30 4
-68 8 -85 10 -16 2 -59 7 -95 10 -36 3 -83 8 -105 10 -22 3 -74 8 -115 11 -41
3 -95 7 -120 9 -114 9 -675 25 -683 19z m-1577 -2968 c30 -4 69 -9 85 -11 17
-3 48 -7 70 -10 22 -3 78 -13 125 -21 47 -9 96 -18 110 -21 47 -8 245 -54 320
-75 41 -11 80 -21 85 -22 286 -70 1136 -364 1420 -491 17 -7 71 -29 120 -49
50 -20 99 -41 110 -46 11 -5 121 -54 245 -109 124 -54 266 -118 315 -141 50
-23 119 -55 155 -72 90 -41 702 -348 775 -388 33 -18 87 -48 120 -65 64 -34
145 -79 210 -115 126 -70 164 -91 305 -173 473 -273 1007 -624 1706 -1121 82
-58 157 -111 168 -118 33 -23 430 -310 481 -348 28 -21 185 -138 350 -260 240
-178 568 -428 665 -507 8 -7 53 -43 100 -80 255 -204 462 -395 542 -498 12
-16 28 -36 36 -44 7 -7 22 -31 33 -52 l20 -39 -26 -24 c-21 -19 -320 -175
-350 -182 -5 -2 -75 -32 -155 -69 -179 -81 -176 -80 -225 -100 -22 -9 -53 -22
-70 -30 -16 -7 -59 -25 -95 -40 -36 -14 -74 -30 -85 -35 -11 -4 -56 -23 -99
-40 -44 -18 -87 -36 -95 -40 -9 -5 -124 -52 -256 -106 -132 -53 -264 -108
-293 -121 -29 -12 -54 -23 -56 -23 -2 0 -21 -8 -42 -17 -22 -9 -41 -17 -44
-18 -3 -1 -16 -6 -30 -12 -14 -6 -60 -25 -102 -42 -42 -16 -96 -39 -120 -50
-79 -36 -114 -43 -155 -32 -21 6 -69 17 -108 25 -138 29 -392 87 -510 117 -66
17 -130 32 -142 35 -26 5 -1091 273 -1563 393 -173 44 -326 82 -340 85 -14 3
-92 21 -175 41 -82 20 -161 38 -175 41 -14 3 -33 7 -42 10 -9 3 -25 7 -35 9
-634 141 -811 180 -866 189 -15 3 -35 7 -45 10 -9 3 -28 7 -42 10 -14 2 -106
20 -205 39 -99 20 -193 39 -210 42 -16 3 -77 15 -135 25 -58 11 -118 22 -135
25 -109 21 -372 67 -396 71 -44 6 -75 11 -184 29 -55 9 -116 18 -135 21 -19 2
-60 8 -90 14 -70 12 -119 19 -178 26 -26 3 -58 7 -72 9 -14 2 -47 7 -75 10
-27 3 -61 8 -75 10 -28 4 -66 9 -215 24 -98 11 -141 15 -282 26 -70 5 -151 13
-213 20 -19 2 -57 7 -85 10 -27 3 -61 7 -75 10 -14 2 -43 7 -65 10 -22 3 -47
7 -55 10 -8 2 -31 6 -50 9 -54 8 -161 44 -205 68 -71 41 -128 188 -258 668
-71 265 -70 262 -73 280 -1 8 -16 74 -34 145 -53 216 -148 685 -165 815 -3 19
-7 46 -9 60 -8 37 -14 88 -21 155 -3 33 -10 96 -15 140 -23 208 -31 556 -17
766 7 99 32 305 42 339 2 8 6 26 9 40 13 75 49 194 84 286 64 166 139 289 267
439 173 202 240 239 455 251 58 4 106 8 107 9 6 4 383 -3 433 -9z m29306 -39
c10 -3 39 -9 64 -12 67 -9 193 -43 269 -71 60 -23 218 -103 245 -124 6 -6 45
-36 86 -68 261 -203 490 -608 559 -988 6 -33 13 -70 16 -84 5 -28 13 -81 19
-130 2 -19 8 -64 12 -100 17 -134 9 -673 -11 -815 -3 -16 -12 -86 -20 -155
-13 -106 -24 -171 -59 -360 -56 -301 -203 -784 -331 -1085 -133 -311 -305
-625 -383 -697 -33 -30 -121 -77 -202 -107 -56 -20 -249 -79 -285 -87 -11 -2
-49 -11 -84 -20 -36 -9 -72 -17 -80 -19 -9 -2 -36 -8 -61 -15 -25 -7 -54 -14
-65 -16 -25 -5 -31 -6 -180 -39 -66 -14 -176 -37 -245 -51 -69 -13 -139 -29
-156 -34 -17 -6 -40 -13 -50 -15 -38 -8 -424 -125 -509 -154 -39 -13 -268 -85
-275 -86 -3 0 -21 -6 -40 -12 -19 -7 -156 -51 -305 -99 -148 -47 -369 -119
-490 -159 -673 -223 -1117 -347 -1335 -372 -95 -11 -214 -8 -252 7 -18 7 -49
26 -69 41 -20 15 -52 37 -70 47 -19 11 -63 36 -99 57 -92 52 -889 445 -905
445 -1 0 -56 25 -120 55 -65 31 -139 65 -164 77 -110 49 -155 70 -223 102 -40
19 -117 55 -171 80 -54 25 -100 46 -103 46 -15 0 -415 205 -463 238 -68 46
-97 95 -81 138 12 31 107 177 137 209 10 11 31 36 47 55 109 134 669 709 977
1002 31 29 139 133 240 230 102 98 195 186 206 196 12 10 81 74 154 143 198
185 236 220 404 373 49 44 101 92 116 106 15 14 57 52 95 85 37 33 78 69 91
81 71 65 177 159 243 215 41 35 80 69 85 75 9 10 264 228 310 265 11 9 49 41
85 70 36 30 81 66 100 80 19 15 45 36 57 48 12 12 26 21 32 21 5 0 11 4 13 8
4 12 346 259 508 367 74 50 137 93 138 98 2 4 8 7 13 7 6 0 36 17 67 38 110
74 366 227 552 329 75 42 416 213 423 213 3 0 34 13 69 29 229 107 592 224
828 267 14 3 50 9 80 15 30 5 89 12 130 15 41 3 76 7 78 9 5 5 319 -3 338 -8z
m8629 -7320 c28 -3 97 -8 155 -12 58 -4 121 -8 140 -10 19 -2 71 -7 115 -10
44 -4 87 -8 95 -10 8 -1 40 -6 70 -9 30 -4 73 -9 95 -12 22 -3 83 -12 135 -20
52 -9 106 -17 120 -19 14 -2 50 -9 80 -15 30 -6 69 -14 85 -16 120 -20 440
-113 575 -166 372 -147 567 -309 646 -537 52 -149 64 -409 29 -592 -3 -13 -10
-51 -16 -84 -17 -97 -47 -211 -91 -345 -248 -762 -813 -1699 -1566 -2595 -128
-152 -182 -216 -208 -245 -256 -289 -417 -453 -493 -504 -115 -77 -210 -42
-669 246 -97 61 -220 139 -273 174 -53 34 -109 69 -125 78 -16 9 -58 35 -94
57 -73 47 -328 197 -410 242 -173 95 -292 157 -435 227 -184 89 -334 160 -341
160 -2 0 -38 16 -80 35 -41 19 -78 35 -80 35 -5 0 -130 51 -199 81 -80 34
-354 133 -585 212 -89 30 -414 130 -491 151 -30 8 -111 31 -181 50 -129 36
-539 140 -613 156 -22 5 -110 25 -195 44 -85 20 -168 39 -184 42 -16 3 -32 6
-35 8 -3 2 -22 7 -41 10 -19 3 -132 25 -250 50 -118 25 -226 47 -240 50 -14 3
-47 9 -75 15 -27 6 -93 20 -145 31 -136 29 -143 30 -162 36 -10 3 -29 7 -43
10 -63 11 -368 87 -444 110 -56 17 -102 39 -140 67 -64 48 -77 58 -94 72 -7 6
-106 82 -222 170 -115 87 -275 208 -355 269 -143 108 -330 254 -340 265 -3 3
-30 26 -60 51 -154 124 -250 226 -250 264 0 75 216 214 555 356 83 34 159 66
170 71 152 65 699 253 1070 368 127 39 503 149 534 156 9 3 57 16 106 30 253
72 964 252 1225 310 102 22 391 85 410 89 14 2 49 9 79 15 30 6 70 15 90 21
20 5 54 12 76 15 22 4 83 15 135 25 52 11 111 21 130 24 19 3 67 12 105 20 39
8 88 17 110 20 22 3 49 7 60 9 44 9 92 17 130 22 22 3 51 7 65 10 24 5 76 13
130 20 28 4 92 14 130 20 14 2 52 7 85 11 33 3 67 8 75 9 9 2 43 6 75 10 33 4
71 8 85 10 14 2 52 7 85 10 33 4 71 8 85 10 14 2 54 7 90 10 36 3 85 8 110 10
130 13 174 17 360 30 156 11 194 13 360 20 91 4 166 9 168 10 5 5 942 -3 997
-8z m-43805 -732 c96 -3 198 -8 225 -10 28 -2 100 -7 160 -11 165 -10 279 -19
360 -29 22 -2 72 -7 110 -10 39 -3 81 -8 95 -10 14 -3 50 -7 80 -10 30 -3 66
-7 80 -10 14 -2 50 -7 80 -11 30 -3 64 -7 75 -8 11 -2 45 -6 75 -10 64 -9 81
-11 175 -26 39 -6 86 -13 105 -16 28 -3 248 -41 410 -69 46 -8 194 -37 320
-62 69 -14 139 -27 155 -30 17 -2 68 -13 115 -24 47 -11 103 -24 125 -29 22
-5 101 -23 175 -40 74 -16 144 -32 155 -34 156 -31 833 -213 1215 -327 151
-45 289 -85 305 -89 17 -5 111 -33 209 -64 341 -106 471 -164 513 -226 60 -87
-28 -183 -407 -448 -145 -101 -515 -366 -520 -371 -3 -3 -23 -19 -45 -36 -22
-16 -42 -31 -45 -35 -3 -3 -32 -25 -65 -49 -33 -25 -62 -47 -65 -51 -3 -3 -18
-16 -35 -29 -16 -12 -50 -40 -75 -61 -25 -20 -78 -65 -117 -98 -78 -64 -186
-158 -238 -207 -18 -16 -55 -50 -81 -74 -106 -95 -411 -402 -539 -542 -409
-448 -812 -1027 -1093 -1569 -112 -217 -144 -282 -277 -585 -57 -129 -247
-637 -260 -695 -2 -8 -15 -49 -28 -90 -49 -150 -138 -457 -151 -520 -3 -14 -7
-34 -10 -45 -14 -51 -78 -313 -82 -335 -3 -13 -12 -56 -20 -95 -21 -97 -21
-95 -49 -235 -13 -69 -29 -152 -35 -185 -5 -33 -12 -71 -15 -85 -3 -14 -8 -41
-11 -60 -2 -19 -9 -57 -14 -85 -5 -27 -16 -99 -25 -160 -9 -60 -18 -121 -21
-135 -2 -14 -6 -43 -9 -65 -3 -22 -8 -58 -11 -80 -11 -79 -13 -91 -19 -145 -3
-30 -8 -73 -11 -95 -3 -22 -7 -51 -9 -65 -2 -14 -6 -54 -10 -90 -8 -81 -12
-120 -20 -190 -7 -68 -12 -116 -20 -200 -3 -36 -8 -76 -10 -90 -2 -14 -7 -61
-11 -105 -3 -44 -8 -89 -10 -100 -4 -21 -10 -65 -19 -140 -3 -27 -8 -61 -10
-75 -2 -14 -6 -43 -10 -65 -36 -244 -63 -359 -89 -377 -6 -4 -22 -5 -36 -1
-24 5 -128 64 -160 90 -281 227 -651 591 -1065 1049 -44 48 -92 101 -106 116
-15 16 -51 56 -80 90 -30 33 -59 66 -64 72 -13 13 -229 261 -259 296 -12 14
-60 70 -107 125 -47 55 -136 161 -197 235 -62 74 -122 146 -134 160 -76 90
-535 669 -615 776 -12 16 -54 71 -92 122 -39 50 -71 96 -71 101 0 5 -4 11 -8
13 -17 7 -280 389 -424 618 -86 137 -268 437 -268 444 0 2 -23 43 -51 92 -83
142 -142 255 -248 469 -146 295 -188 389 -302 672 -158 394 -297 865 -344
1173 -3 19 -8 46 -10 60 -3 14 -7 43 -10 65 -2 22 -7 51 -9 65 -3 14 -8 61
-12 105 -3 44 -8 96 -10 115 -5 50 -4 374 1 445 12 158 54 381 102 535 15 47
27 90 29 95 6 28 72 181 114 265 182 367 467 687 814 914 63 41 325 178 361
189 11 3 53 19 94 37 106 44 347 121 451 145 8 1 33 8 55 13 22 6 51 13 65 16
14 2 70 14 125 26 55 11 111 22 125 24 33 6 109 17 140 21 22 3 62 9 140 20
74 11 152 19 295 30 55 4 118 9 140 11 22 2 130 6 240 10 110 3 201 7 202 8 3
2 292 -3 463 -9z"/>
<path d="M33799 42783 c-13 -16 -12 -17 4 -4 9 7 17 15 17 17 0 8 -8 3 -21
-13z"/>
<path d="M47139 31383 c-13 -16 -12 -17 4 -4 9 7 17 15 17 17 0 8 -8 3 -21
-13z"/>
<path d="M48472 29324 c-22 -42 -127 -405 -272 -939 -45 -165 -88 -320 -95
-345 -8 -25 -37 -121 -65 -215 -583 -1941 -1528 -3837 -2620 -5250 -46 -60
-87 -112 -90 -115 -3 -3 -43 -52 -90 -110 -46 -58 -87 -107 -90 -110 -3 -3
-20 -23 -39 -45 -265 -313 -582 -629 -1056 -1054 -22 -20 -74 -65 -115 -101
-41 -36 -77 -67 -80 -70 -3 -3 -68 -59 -145 -124 -184 -155 -165 -139 -285
-236 -58 -47 -107 -87 -110 -90 -44 -47 -649 -511 -1005 -772 -421 -309 -1016
-698 -1378 -902 -213 -120 -731 -367 -1112 -530 -60 -26 -123 -53 -140 -61
-151 -67 -495 -196 -765 -287 -358 -121 -577 -189 -1590 -494 -338 -102 -687
-208 -775 -234 -580 -175 -960 -300 -948 -311 8 -7 93 -34 778 -245 761 -235
1237 -394 1765 -591 739 -276 1291 -514 1945 -838 1374 -682 2494 -1454 3585
-2470 137 -127 673 -668 789 -795 186 -204 193 -212 257 -285 54 -62 317 -376
347 -415 7 -8 39 -49 72 -90 33 -41 101 -129 150 -195 50 -66 93 -122 96 -125
15 -13 272 -379 386 -551 124 -186 353 -545 353 -554 0 -3 15 -28 34 -57 18
-29 69 -116 114 -193 83 -147 102 -181 169 -305 22 -41 57 -106 78 -145 131
-241 357 -712 495 -1030 28 -66 60 -138 70 -160 26 -59 198 -487 232 -580 273
-733 454 -1319 678 -2200 90 -355 104 -409 197 -738 77 -275 81 -287 93 -266
22 39 132 416 216 739 53 202 160 601 174 645 6 17 37 122 70 235 189 639 465
1392 707 1930 411 912 769 1567 1253 2295 410 617 860 1195 1330 1709 157 172
222 240 434 451 407 405 678 648 1106 991 594 476 1379 991 2055 1348 61 32
115 62 120 66 18 13 304 160 565 291 1135 567 2148 940 3880 1428 206 58 915
260 978 278 28 9 52 19 52 23 0 8 -130 48 -600 185 -1728 503 -2759 894 -4015
1522 -551 276 -1113 583 -1390 761 -218 140 -562 380 -685 479 -8 7 -67 54
-130 104 -108 87 -219 178 -230 189 -3 3 -50 43 -105 90 -55 47 -102 87 -105
90 -3 3 -39 34 -80 70 -41 36 -77 67 -80 70 -3 3 -63 57 -135 119 -71 63 -135
119 -140 125 -6 6 -51 47 -100 91 -50 44 -95 85 -101 90 -355 324 -540 501
-999 960 -382 381 -502 504 -617 636 -31 35 -66 75 -78 89 -37 41 -202 258
-287 375 -121 168 -343 491 -343 501 0 2 -15 26 -33 52 -77 111 -297 474 -422
697 -296 526 -601 1156 -826 1703 -33 81 -66 161 -74 177 -87 196 -319 836
-476 1310 -76 230 -126 389 -269 865 -11 36 -62 220 -115 410 -194 702 -261
930 -299 1020 -12 31 -14 32 -24 14z"/>
<path d="M10273 19908 c-23 -24 -37 -74 -49 -173 -13 -110 -8 -513 11 -845 2
-30 6 -109 9 -175 4 -66 8 -145 11 -175 2 -30 7 -102 10 -160 3 -58 8 -130 10
-160 6 -72 14 -196 20 -290 2 -41 7 -104 10 -140 7 -78 12 -155 20 -270 3 -47
7 -103 10 -125 5 -49 13 -138 20 -225 7 -86 13 -162 19 -213 3 -23 8 -82 12
-132 3 -49 8 -97 9 -106 2 -9 6 -52 10 -95 4 -43 9 -86 10 -95 2 -9 6 -56 10
-105 4 -49 8 -91 10 -94 2 -3 6 -39 10 -80 4 -41 8 -77 10 -80 2 -3 6 -43 10
-90 3 -47 8 -92 10 -100 2 -8 7 -35 10 -60 3 -25 7 -61 10 -80 3 -19 7 -53 9
-75 6 -47 35 -259 42 -296 2 -15 6 -47 9 -70 3 -24 8 -56 10 -71 9 -54 14 -84
20 -128 3 -25 8 -52 10 -60 2 -8 7 -35 10 -60 3 -25 13 -83 22 -130 8 -47 17
-96 19 -110 5 -25 33 -179 40 -213 2 -10 5 -26 8 -35 3 -9 7 -35 11 -57 15
-103 141 -647 209 -900 30 -114 65 -231 103 -355 15 -47 28 -90 29 -95 4 -23
138 -415 171 -500 88 -230 163 -416 208 -520 58 -132 151 -337 168 -370 12
-22 22 -42 22 -45 4 -21 272 -538 312 -602 13 -21 23 -40 23 -42 0 -9 221
-387 325 -556 171 -278 256 -409 480 -740 92 -135 193 -283 226 -330 33 -47
67 -96 77 -110 25 -36 120 -171 142 -200 10 -14 47 -63 81 -110 57 -77 246
-318 259 -330 3 -3 48 -57 101 -120 53 -64 103 -122 110 -130 8 -8 39 -44 69
-80 61 -71 94 -110 125 -144 37 -41 156 -174 173 -194 15 -17 83 -91 215 -236
277 -301 662 -699 1057 -1092 255 -252 283 -280 521 -505 209 -198 227 -215
303 -282 38 -34 83 -75 101 -92 37 -36 177 -160 260 -230 32 -27 66 -57 75
-65 52 -48 336 -276 515 -414 77 -59 147 -113 155 -119 8 -7 33 -26 55 -42 22
-17 46 -35 55 -42 8 -7 44 -33 80 -60 36 -26 70 -52 77 -58 6 -5 36 -27 65
-48 29 -21 94 -68 144 -105 51 -37 102 -74 114 -82 12 -8 48 -34 80 -57 234
-169 953 -649 1111 -743 34 -20 354 -216 399 -245 59 -37 192 -116 250 -148
30 -17 78 -46 107 -64 29 -18 54 -33 56 -33 3 0 55 -29 116 -65 62 -36 138
-79 169 -97 31 -17 71 -39 87 -48 38 -21 257 -140 350 -190 391 -210 860 -442
1345 -668 55 -25 484 -216 545 -241 11 -5 36 -16 55 -24 773 -336 1831 -715
2700 -965 328 -95 1076 -289 1220 -316 14 -3 88 -19 165 -36 77 -17 163 -35
190 -40 28 -6 59 -12 70 -15 34 -7 229 -46 255 -51 14 -2 45 -8 70 -13 25 -5
74 -15 110 -21 36 -6 85 -16 110 -21 46 -9 134 -24 204 -34 21 -3 48 -7 60
-10 12 -2 39 -7 61 -10 22 -3 56 -8 75 -11 19 -3 58 -9 85 -14 28 -5 74 -11
104 -15 29 -3 56 -7 60 -9 3 -2 37 -7 76 -11 38 -3 72 -8 75 -10 3 -2 35 -6
71 -9 36 -4 76 -8 90 -11 21 -3 90 -11 259 -31 25 -3 59 -7 75 -9 17 -2 57 -7
90 -10 33 -2 78 -7 100 -9 22 -2 76 -7 120 -11 44 -3 91 -8 105 -10 14 -2 66
-6 115 -10 50 -3 108 -8 130 -10 35 -4 85 -8 255 -20 19 -1 94 -6 165 -10 72
-4 148 -9 170 -10 40 -3 251 -14 375 -20 524 -24 1560 -25 2010 0 30 1 116 6
190 10 138 7 169 9 325 19 136 10 225 16 280 21 28 3 75 7 105 10 144 12 335
31 415 40 17 2 55 6 85 9 30 4 71 9 90 11 19 3 62 7 95 10 33 4 67 8 75 10 8
2 44 7 80 10 36 4 67 8 70 10 3 1 34 6 70 10 62 6 92 10 143 19 12 2 45 7 72
11 63 8 102 14 140 21 17 3 41 7 55 8 21 3 149 24 253 41 15 3 42 7 60 10 36
6 213 39 327 61 41 8 86 16 100 19 105 20 256 51 370 77 74 16 146 32 160 34
14 3 63 14 110 25 47 11 95 23 108 25 13 3 78 18 145 35 67 17 129 32 137 34
8 2 53 13 100 25 47 12 90 23 95 24 6 2 30 8 55 15 25 7 53 15 62 17 50 11
379 104 533 149 28 9 59 17 69 20 11 2 40 11 65 19 25 8 120 38 211 66 508
159 1404 477 1637 581 23 11 47 19 53 19 5 0 18 4 28 10 9 5 123 53 252 105
225 93 524 219 640 272 30 14 69 31 85 38 138 61 419 190 610 280 380 179
1098 539 1132 566 7 6 13 9 13 6 0 -3 84 41 188 97 103 57 212 116 242 133 85
47 147 81 250 141 120 69 154 89 210 120 59 33 298 178 375 227 33 21 94 66
135 98 106 84 263 188 348 230 87 43 302 185 508 335 32 24 122 88 199 143
156 112 174 125 645 472 184 136 348 257 364 270 l29 24 -52 174 c-152 503
-414 1234 -561 1564 -10 22 -30 68 -44 103 -187 447 -509 1067 -811 1562 -132
215 -278 435 -460 689 l-120 167 -162 -105 c-212 -139 -387 -250 -491 -312
-15 -9 -125 -75 -245 -148 -120 -72 -220 -131 -222 -131 -3 0 -29 -16 -59 -35
-30 -19 -58 -35 -61 -35 -3 0 -22 -11 -43 -24 -74 -46 -522 -296 -532 -296 -5
0 -10 -4 -10 -10 0 -5 -4 -10 -9 -10 -4 0 -53 -24 -107 -54 -225 -122 -385
-205 -689 -355 -176 -87 -336 -165 -355 -174 -19 -8 -75 -34 -125 -57 -235
-108 -607 -266 -913 -386 -169 -67 -626 -239 -672 -254 -14 -5 -56 -20 -95
-35 -38 -14 -160 -58 -270 -96 -110 -39 -229 -81 -265 -94 -36 -13 -81 -28
-100 -35 -200 -66 -637 -204 -695 -220 -16 -4 -70 -20 -120 -35 -198 -59 -766
-214 -844 -230 -9 -2 -72 -17 -141 -34 -175 -42 -350 -82 -385 -87 -16 -3 -48
-10 -70 -16 -22 -5 -51 -12 -65 -15 -14 -2 -52 -10 -85 -18 -33 -7 -80 -16
-105 -20 -24 -4 -47 -8 -50 -10 -3 -2 -21 -6 -40 -9 -19 -3 -46 -8 -60 -11
-14 -3 -41 -8 -60 -11 -19 -3 -53 -9 -75 -14 -22 -5 -53 -11 -70 -14 -16 -3
-70 -12 -120 -21 -129 -22 -130 -22 -235 -39 -95 -15 -144 -22 -210 -32 -19
-2 -44 -6 -55 -9 -11 -2 -42 -7 -70 -10 -27 -3 -66 -8 -85 -12 -19 -3 -46 -7
-60 -8 -22 -2 -91 -10 -160 -20 -14 -2 -50 -6 -80 -10 -66 -7 -123 -14 -170
-20 -19 -2 -60 -7 -90 -10 -30 -3 -75 -8 -100 -10 -25 -3 -76 -8 -115 -11 -38
-2 -83 -6 -100 -9 -16 -2 -70 -6 -120 -10 -49 -3 -108 -8 -130 -10 -22 -2 -94
-7 -160 -10 -66 -4 -136 -8 -155 -10 -212 -19 -1072 -26 -1385 -11 -297 14
-432 22 -545 32 -30 2 -82 7 -115 9 -33 3 -87 8 -120 11 -33 3 -80 7 -105 9
-52 3 -159 14 -210 20 -90 12 -119 15 -170 20 -80 8 -150 16 -171 20 -10 2
-44 6 -76 10 -32 3 -69 8 -83 10 -14 2 -45 6 -70 9 -25 3 -56 8 -69 11 -13 2
-49 7 -80 11 -31 3 -63 8 -73 9 -9 2 -38 6 -65 10 -41 6 -176 27 -252 40 -13
2 -45 7 -70 10 -25 3 -66 10 -91 15 -25 5 -61 12 -80 15 -19 2 -46 7 -60 9
-14 3 -65 12 -115 20 -49 9 -101 18 -115 21 -78 15 -138 27 -160 30 -14 2 -95
18 -180 35 -85 17 -166 34 -180 36 -42 7 -411 87 -510 110 -36 8 -83 19 -105
24 -191 44 -334 78 -465 112 -85 22 -162 41 -170 43 -65 13 -548 143 -725 195
-38 11 -149 43 -245 71 -210 61 -552 166 -710 219 -30 10 -71 23 -90 28 -58
17 -491 165 -720 248 -118 42 -255 91 -305 109 -49 18 -119 44 -154 59 -36 14
-68 26 -72 26 -3 0 -24 8 -45 17 -22 9 -41 17 -44 18 -10 2 -126 46 -155 59
-16 8 -84 35 -150 61 -66 25 -156 61 -200 80 -214 89 -546 230 -600 255 -33
16 -94 43 -135 60 -41 18 -121 55 -178 81 -56 27 -104 49 -106 49 -15 0 -878
425 -1111 548 -397 208 -761 411 -1130 630 -88 52 -169 100 -180 106 -11 6
-31 19 -45 28 -14 8 -110 69 -215 133 -104 65 -212 132 -240 150 -140 91 -591
390 -665 442 -82 57 -176 123 -298 208 -156 110 -544 397 -762 566 -72 56
-544 433 -569 454 -14 13 -60 51 -101 85 -88 73 -135 112 -251 211 -47 41
-112 97 -144 124 -32 28 -63 55 -69 60 -6 6 -45 39 -86 75 -41 36 -97 86 -125
111 -27 25 -72 66 -100 90 -67 59 -59 52 -175 159 -149 136 -144 131 -311 290
-283 268 -815 796 -1009 1000 -29 30 -96 100 -149 155 -81 85 -226 239 -356
379 -16 18 -64 71 -106 117 -42 46 -87 96 -100 110 -32 34 -155 171 -180 200
-11 13 -46 53 -77 88 -56 62 -76 86 -110 126 -42 50 -197 231 -202 235 -3 3
-23 27 -45 54 -37 46 -230 282 -258 316 -15 18 -269 342 -303 385 -61 80 -120
159 -134 178 -8 12 -54 74 -101 137 -47 63 -129 176 -182 250 -53 74 -100 140
-104 145 -13 15 -201 286 -293 420 -45 66 -164 244 -264 395 -161 243 -220
333 -351 535 -90 139 -325 512 -550 875 -317 510 -358 574 -367 578 -5 2 -8 8
-8 13 0 13 -272 415 -327 483 -26 33 -53 61 -59 63 -5 2 -20 -7 -31 -19z"/>
<path d="M36795 14129 c-9 -26 -95 -357 -100 -384 -26 -126 -373 -1329 -425
-1475 -5 -14 -32 -99 -60 -190 -132 -423 -360 -1089 -585 -1710 -68 -187 -81
-224 -153 -430 -191 -548 -282 -894 -251 -952 5 -10 26 -26 47 -35 65 -29 467
-22 642 12 14 3 41 7 60 10 83 11 118 16 175 26 33 6 71 13 85 14 20 3 178 33
320 61 56 11 210 45 285 63 136 33 238 57 273 65 30 7 294 77 367 97 39 11 95
26 125 35 30 8 84 24 120 34 36 11 124 37 195 59 573 172 1117 359 1795 619
101 39 454 180 515 206 17 8 50 21 75 31 25 10 69 29 98 42 29 13 54 23 57 23
8 0 545 235 760 332 210 95 287 131 490 229 50 23 92 43 95 44 3 1 77 37 164
80 l160 78 -65 61 c-263 249 -646 568 -988 824 -999 747 -2195 1381 -3626
1922 -177 67 -630 230 -639 230 -3 0 -8 -9 -11 -21z"/>
<path d="M58670 10508 c-296 -673 -706 -1307 -1215 -1883 -204 -231 -563 -573
-824 -785 -51 -41 -101 -82 -111 -90 -53 -43 -279 -206 -375 -271 -270 -183
-488 -309 -873 -504 -117 -60 -209 -112 -205 -115 4 -4 53 -26 108 -49 305
-128 656 -314 910 -484 108 -72 494 -357 570 -420 17 -14 84 -69 150 -123 66
-54 122 -101 125 -104 3 -3 41 -36 85 -75 297 -259 588 -548 771 -765 302
-359 582 -804 864 -1375 l138 -280 15 35 c288 675 630 1276 918 1614 165 194
290 327 574 612 361 362 642 618 865 790 236 181 638 419 1108 656 111 57 202
105 202 109 0 3 -53 30 -117 60 -388 178 -911 470 -1212 677 -507 348 -909
713 -1345 1222 -110 128 -296 377 -422 565 -202 300 -344 545 -523 903 -61
122 -113 222 -115 222 -1 0 -31 -64 -66 -142z"/>
</g>
</svg>
